# xmcd CD database file
#
# Track frame offsets:
#	150
#	28575
#	62295
#	96089
#	126830
#	152451
#	184175
#	208324
#	231042
#	245182
#	261973
#	279750
#	291520
#	305587
#	323550
#	340791
#	357284
#
# Disc length: 4991 seconds
#
# Revision: 0
# Processed by: cddbd v1.5.2PL0 Copyright (c) Steve Scherf et al.
# Submitted via: CDex 1.83
#
DISCID=fa137d11
DTITLE=Duke Ellington - Back To Basics For The First Time
DYEAR=1959
DGENRE=Jazz
TTITLE0=Wabash Blues
TTITLE1=Basin Street Blues
TTITLE2=Beale Street Blues
TTITLE3=Weary Blues
TTITLE4=St. Louis Bllues
TTITLE5=Loveless Love
TTITLE6=Royal Garden Blues
TTITLE7=Duke's Place
TTITLE8=I'm Just A Lucky So And So
TTITLE9=Cotton Tail
TTITLE10=Mood Indigo
TTITLE11=Do Nothing Till You Hear From Me
TTITLE12=The BEautiful American
TTITLE13=Black And Tan Fantasy
TTITLE14=Drop me Off In Harlem
TTITLE15=The Mooche
TTITLE16=In A Mellow Tone
EXTD=YEAR: 1959
EXTT0=
EXTT1=
EXTT2=
EXTT3=
EXTT4=
EXTT5=
EXTT6=
EXTT7=
EXTT8=
EXTT9=
EXTT10=
EXTT11=
EXTT12=
EXTT13=
EXTT14=
EXTT15=
EXTT16=
PLAYORDER=
